<svg id="visual" viewBox="0 0 960 540" width="960" height="540" xmlns="http://www.w3.org/2000/svg" xmlns:xlink="http://www.w3.org/1999/xlink" version="1.1"><rect x="0" y="0" width="960" height="540" fill="#001220"></rect><defs><linearGradient id="grad1_0" x1="43.8%" y1="0%" x2="100%" y2="100%"><stop offset="14.444444444444446%" stop-color="#001220" stop-opacity="1"></stop><stop offset="85.55555555555554%" stop-color="#001220" stop-opacity="1"></stop></linearGradient></defs><defs><linearGradient id="grad2_0" x1="0%" y1="0%" x2="56.3%" y2="100%"><stop offset="14.444444444444446%" stop-color="#001220" stop-opacity="1"></stop><stop offset="85.55555555555554%" stop-color="#001220" stop-opacity="1"></stop></linearGradient></defs><g transform="translate(960, 0)"><path d="M0 486C-59.3 472.8 -118.5 459.5 -182.2 439.8C-245.8 420 -313.8 393.7 -343.7 343.7C-373.5 293.6 -365.1 219.7 -382.5 158.4C-399.8 97.2 -442.9 48.6 -486 0L0 0Z" fill="#FBAE3C"></path></g><g transform="translate(0, 540)"><path d="M0 -486C51 -448.8 102 -411.7 163 -393.6C224.1 -375.5 295.2 -376.4 343.7 -343.7C392.1 -310.9 418 -244.3 437.9 -181.4C457.9 -118.5 471.9 -59.2 486 0L0 0Z" fill="#FBAE3C"></path></g></svg>